<?xml version="1.0" encoding="utf-8"?>
<!-- Generator: Adobe Illustrator 19.0.0, SVG Export Plug-In . SVG Version: 6.00 Build 0)  -->
<svg version="1.1" id="Layer_1" xmlns="http://www.w3.org/2000/svg" xmlns:xlink="http://www.w3.org/1999/xlink" x="0px" y="0px"
	 viewBox="-292 409.9 64 64" style="enable-background:new -292 409.9 64 64;" xml:space="preserve">
<style type="text/css">
	.st0{fill:#BE1E2D;}
</style>
<g>
	<path class="st0" d="M-274.2,448.3c0.9-1.4,6.7-24.5,6.7-24.5h-17.9l-6.5,23.9l11.2-1.5l-0.6,2.9c-0.3,3.1,2.6,3,2.6,3
		C-275.6,452.6-274.2,448.3-274.2,448.3z"/>
	<path class="st0" d="M-228.2,434.2c0,0,0.3-1.2,0.2-2.3c-0.1-1,0.8-8.1-11-8.3h-17.2l-5.8,21.6l14,0.1c0,0,5.6,0.9,5.7,3.4
		c0.1,2.5-2.7,4.9-6,4.7c-3.4-0.2-5.5-1.4-4.9-6.1l-9.9,1c-0.1,0.1-2.5,10.2-13.6,12.1h28.7c0,0,9.2-0.3,14-6.6
		c4.8-6.3,3.6-9.5,2.8-11.4c-1-1.9-3.3-4.1-8.8-5.5c-5.5-1.3-5.1-1.1-6.9-1.7c0,0-1.5-0.6-1.1-2.2c0.3-1.5,2.5-2.6,4-2.5h1.6
		c0,0,3.7-0.3,3.4,4.3L-228.2,434.2z"/>
</g>
</svg>
