<?xml version="1.0" encoding="utf-8"?>
<!-- Generator: Adobe Illustrator 19.0.0, SVG Export Plug-In . SVG Version: 6.00 Build 0)  -->
<svg version="1.1" id="Layer_1" xmlns="http://www.w3.org/2000/svg" xmlns:xlink="http://www.w3.org/1999/xlink" x="0px" y="0px"
	 viewBox="0 0 85 56.7" style="enable-background:new 0 0 85 56.7;" xml:space="preserve">
<style type="text/css">
	.st0{fill:#BE1E2D;}
</style>
<path id="XMLID_21_" class="st0" d="M13.1,7.4h20.7c0,0-6.7,26.7-7.7,28.3c0,0-1.6,4.9-5.3,4.5c0,0-3.4,0.1-3-3.5l0.7-3.4L5.6,35
	L13.1,7.4z"/>
<path id="XMLID_20_" class="st0" d="M23.4,49.5h33.1c0,0,10.6-0.3,16.1-7.6c5.5-7.3,4.2-11,3.2-13.2c-1.1-2.2-3.8-4.7-10.2-6.3
	c-6.4-1.5-5.9-1.3-8-2c0,0-1.7-0.7-1.3-2.5c0.4-1.7,2.9-3,4.6-2.9h1.8c0,0,4.3-0.4,3.9,5l12.6-0.6c0,0,0.3-1.4,0.2-2.7
	c-0.1-1.2,0.9-9.3-12.7-9.6H46.9L40.2,32l16.2,0.1c0,0,6.5,1,6.6,3.9c0.1,2.9-3.1,5.6-6.9,5.4c-3.9-0.2-6.3-1.6-5.6-7l-11.4,1.1
	C39,35.6,36.2,47.3,23.4,49.5z"/>
</svg>
