<?xml version="1.0" encoding="utf-8"?>
<!-- Generator: Adobe Illustrator 19.0.0, SVG Export Plug-In . SVG Version: 6.00 Build 0)  -->
<svg version="1.1" id="Layer_1" xmlns="http://www.w3.org/2000/svg" xmlns:xlink="http://www.w3.org/1999/xlink" x="0px" y="0px"
	 viewBox="-26 399.3 542.2 42.6" style="enable-background:new -26 399.3 542.2 42.6;" xml:space="preserve">
<style type="text/css">
	.st0{fill:#FF3B3B;}
</style>
<path id="XMLID_21_" class="st0" d="M-18.5,399.7H2.2c0,0-6.7,26.7-7.7,28.3c0,0-1.6,4.9-5.3,4.5c0,0-3.4,0.1-3-3.5l0.7-3.4
	l-12.9,1.7L-18.5,399.7z"/>
<path id="XMLID_20_" class="st0" d="M-8.2,441.8h33.1c0,0,10.6-0.3,16.1-7.6s4.2-11,3.2-13.2c-1.1-2.2-3.8-4.7-10.2-6.3
	c-6.4-1.5-5.9-1.3-8-2c0,0-1.7-0.7-1.3-2.5c0.4-1.7,2.9-3,4.6-2.9h1.8c0,0,4.3-0.4,3.9,5l12.6-0.6c0,0,0.3-1.4,0.2-2.7
	c-0.1-1.2,0.9-9.3-12.7-9.6H15.3l-6.7,24.9l16.2,0.1c0,0,6.5,1,6.6,3.9c0.1,2.9-3.1,5.6-6.9,5.4c-3.9-0.2-6.3-1.6-5.6-7l-11.4,1.1
	C7.4,427.9,4.6,439.6-8.2,441.8z"/>
<g id="XMLID_2_">
	<path id="XMLID_18_" d="M68.3,441.9c1.1-1.9,2.3-3.7,3.6-5.5c1.3-1.8,2.8-3.6,4.5-5.3h16.2c1,0,2-0.3,3-0.8s1.8-1.2,2.6-2
		c0.8-0.8,1.5-1.7,2.1-2.6c0.6-0.9,1.1-1.7,1.5-2.5l8.7-23.8h15.2l-7.8,21.2c-1.2,3.4-2.5,6.5-3.7,9.1s-2.7,4.9-4.3,6.7
		c-1.7,1.8-3.6,3.2-6,4.1c-2.3,0.9-5.2,1.4-8.6,1.4H93C93,441.9,68.3,441.9,68.3,441.9z"/>
	<path id="XMLID_16_" d="M123.7,417.2l6.3-17.8h15.1c-1.9,5.4-3.3,9.7-4.3,12.7s-1.8,5.3-2.2,6.8c-0.5,1.5-0.8,2.4-0.9,2.8
		c-0.1,0.4-0.2,0.7-0.2,0.8c-0.3,1.1-0.4,1.9-0.4,2.6c0,1.9,0.5,3.3,1.4,4.4c0.9,1,2.1,1.6,3.6,1.6h3.9c1.3,0,2.5-0.3,3.6-0.8
		c1.1-0.5,2.1-1.2,2.9-2c0.9-0.8,1.6-1.7,2.2-2.6c0.6-0.9,1.1-1.7,1.5-2.5l8.7-23.8h15.2l-7.2,19.8c-1.3,3.7-2.7,6.9-4.1,9.7
		c-1.4,2.8-3,5.2-4.7,7.1c-1.8,1.9-3.8,3.4-6.1,4.4s-5,1.5-8.3,1.5h-9.4c-3.7,0-6.9-0.2-9.3-0.6c-2.5-0.4-4.5-1.1-6-2
		s-2.6-2.1-3.2-3.6s-1-3.3-1-5.4c0-0.6,0-1.2,0.1-1.8s0.2-1.3,0.3-2.1c0.3-1.4,0.6-2.8,1-4.2C122.8,420.6,123.2,419,123.7,417.2z"/>
	<path id="XMLID_14_" d="M207.3,428.4v-0.5c0-0.4-0.1-0.9-0.2-1.3c-0.2-0.5-0.5-0.7-0.9-0.7h-16c-1.6,0-3-0.4-4.3-1.2
		s-2.4-1.8-3.3-3c-0.9-1.2-1.6-2.5-2.1-4c-0.5-1.4-0.7-2.9-0.7-4.2s0.4-2.7,1.1-4.4c0.7-1.6,1.7-3.2,2.9-4.6c1.2-1.5,2.5-2.7,4-3.7
		s3-1.5,4.5-1.5h40.9c-1.2,1.8-2.6,3.6-4.2,5.4c-1.6,1.8-3.3,3.6-5.2,5.4h-26.7c-0.6,0-1.1,0.4-1.5,1.2s-0.6,1.4-0.6,1.9v0.4
		c0,0.1,0.1,0.2,0.3,0.4s0.4,0.3,0.5,0.4c0.2,0.2,0.5,0.4,0.9,0.6s0.6,0.3,0.7,0.3h15.2c1.7,0,3.2,0.4,4.4,1.2s2.2,1.9,3,3.1
		c0.8,1.3,1.3,2.6,1.7,4s0.6,2.8,0.6,4v0.5c0,1.4-0.3,2.9-1,4.4c-0.6,1.6-1.5,3-2.5,4.4c-1,1.3-2.2,2.4-3.6,3.3
		c-1.4,0.9-2.8,1.3-4.2,1.3h-40.9c0.3-0.5,0.8-1.4,1.6-2.6s1.7-2.4,2.6-3.6c0.9-1.2,1.8-2.3,2.6-3.2s1.3-1.4,1.4-1.4h27.2
		c0.8,0,1.3-0.2,1.4-0.7c0.1-0.5,0.2-1,0.2-1.5v-0.1L207.3,428.4L207.3,428.4z"/>
	<path id="XMLID_12_" d="M246.4,410.2h-15.1v-0.1c0.1-0.2,0.4-0.8,1.2-1.8c0.7-1,1.6-2,2.6-3.2s2-2.3,3-3.4c1-1.1,1.9-1.9,2.7-2.4
		H281c-0.4,0.7-1,1.7-1.9,2.9c-0.9,1.2-1.8,2.4-2.8,3.6s-2,2.2-2.9,3c-0.9,0.9-1.6,1.3-2,1.3h-9.5l-11.5,31.7H235L246.4,410.2z"/>
	<path id="XMLID_10_" d="M329.9,428.4v-0.5c0-0.4-0.1-0.9-0.2-1.3c-0.2-0.5-0.5-0.7-0.9-0.7h-16c-1.6,0-3-0.4-4.3-1.2
		s-2.4-1.8-3.3-3c-0.9-1.2-1.6-2.5-2.1-4c-0.5-1.4-0.7-2.9-0.7-4.2s0.4-2.7,1.1-4.4c0.7-1.6,1.7-3.2,2.9-4.6c1.2-1.5,2.5-2.7,4-3.7
		s3-1.5,4.5-1.5h40.9c-1.2,1.8-2.6,3.6-4.2,5.4c-1.6,1.8-3.3,3.6-5.2,5.4H320c-0.6,0-1.1,0.4-1.5,1.2c-0.4,0.8-0.6,1.4-0.6,1.9v0.4
		c0,0.1,0.1,0.2,0.3,0.4c0.2,0.2,0.4,0.3,0.5,0.4c0.2,0.2,0.5,0.4,0.9,0.6c0.4,0.2,0.6,0.3,0.7,0.3h15.2c1.7,0,3.2,0.4,4.4,1.2
		c1.2,0.8,2.2,1.9,3,3.1c0.8,1.3,1.3,2.6,1.7,4s0.6,2.8,0.6,4v0.5c0,1.4-0.3,2.9-1,4.4c-0.6,1.6-1.5,3-2.5,4.4
		c-1,1.3-2.2,2.4-3.6,3.3c-1.4,0.9-2.8,1.3-4.2,1.3H293c0.3-0.5,0.8-1.4,1.6-2.6c0.8-1.2,1.7-2.4,2.6-3.6c0.9-1.2,1.8-2.3,2.6-3.2
		s1.3-1.4,1.4-1.4h27.2c0.8,0,1.3-0.2,1.4-0.7c0.1-0.5,0.2-1,0.2-1.5v-0.1L329.9,428.4L329.9,428.4z"/>
	<path id="XMLID_7_" d="M387.3,441.9l-1.7-9.1c-0.1,0.3-0.5,0.9-1.2,1.8c-0.7,0.9-1.4,1.9-2.2,2.9s-1.6,2-2.4,2.8
		c-0.8,0.9-1.4,1.4-1.8,1.5h-33.9c0.1-0.4,0.2-0.6,0.2-0.6V441l28.8-36.8c0.2-0.3,0.5-0.7,1-1.3c0.5-0.5,1-1.1,1.6-1.6
		c0.6-0.5,1.1-1,1.7-1.4c0.6-0.4,1-0.6,1.4-0.6h13.5c0.5,0,1,0.3,1.5,0.9c0.5,0.6,0.8,1.3,1.2,2.2c0.3,0.9,0.6,1.8,0.8,2.7
		s0.4,1.7,0.6,2.4l5.3,34.4L387.3,441.9L387.3,441.9z M369.3,431.1h16.3l-2.8-18.8l-13.5,18V431.1z"/>
	<path id="XMLID_5_" d="M466.4,399.4c-0.4,0.7-1,1.7-1.9,2.9c-0.9,1.2-1.8,2.4-2.8,3.6s-2,2.2-2.9,3c-0.9,0.9-1.6,1.3-2,1.3h-24.7
		l-4.6,12.6l7.6-7.4h18.5l-11.5,10.8h-15.9l-5.7,15.6h-15.3l15.5-42.5h45.7L466.4,399.4L466.4,399.4z"/>
	<path id="XMLID_3_" d="M516.2,399.4c-0.4,0.7-1,1.7-1.9,2.9c-0.9,1.2-1.8,2.4-2.8,3.6s-2,2.2-2.9,3c-0.9,0.9-1.6,1.3-2,1.3h-24.7
		l-4.6,12.6l7.6-7.4h18.5l-11.5,10.8H476l-1.8,4.8h30.7c-0.1,0.1-0.2,0.3-0.4,0.7c-0.2,0.3-0.4,0.7-0.6,1.1c-0.2,0.4-0.4,0.7-0.6,1
		s-0.3,0.5-0.4,0.6c-0.5,0.6-1.1,1.4-2,2.2c-0.8,0.9-1.6,1.7-2.4,2.4c-0.8,0.8-1.5,1.4-2.1,2c-0.6,0.5-0.9,0.8-1,0.8h-40.3
		l15.5-42.5h45.6V399.4L516.2,399.4z"/>
</g>
</svg>
